HIERARCHY
ROOT newVegas:Hips
{
	OFFSET 0.000000 96.479958 0.000000
	CHANNELS 6 Xposition Yposition Zposition Xrotation Yrotation Zrotation
	JOINT newVegas:Pelvis
	{
		OFFSET 0.000000 0.000000 0.000000
		CHANNELS 3 Xrotation Yrotation Zrotation
		JOINT newVegas:LeftUpLeg
		{
			OFFSET 18.735201 -5.666702 -4.541200
			CHANNELS 3 Xrotation Yrotation Zrotation
			JOINT newVegas:LeftLeg
			{
				OFFSET -0.021200 -31.938179 0.493100
				CHANNELS 3 Xrotation Yrotation Zrotation
				JOINT newVegas:LeftFoot
				{
					OFFSET 0.021200 -31.938179 -4.336299
					CHANNELS 3 Xrotation Yrotation Zrotation
					JOINT newVegas:LeftToeBase
					{
						OFFSET 0.943001 -26.722000 15.023500
						CHANNELS 3 Xrotation Yrotation Zrotation
						End Site
						{
							OFFSET 0.000000 30.670183 0.000000
						}
					}
				}
				JOINT newVegas:Left_PantLeg
				{
					OFFSET 0.663870 -9.044666 -1.108900
					CHANNELS 3 Xrotation Yrotation Zrotation
					End Site
					{
						OFFSET 1.415995 20.635357 0.000000
					}
				}
			}
		}
		JOINT newVegas:RightUpLeg
		{
			OFFSET -18.735201 -5.666702 -4.541200
			CHANNELS 3 Xrotation Yrotation Zrotation
			JOINT newVegas:RightLeg
			{
				OFFSET 0.018946 -31.938133 0.493100
				CHANNELS 3 Xrotation Yrotation Zrotation
				JOINT newVegas:RightFoot
				{
					OFFSET -0.018946 -31.938126 -4.336299
					CHANNELS 3 Xrotation Yrotation Zrotation
					JOINT newVegas:RightToeBase
					{
						OFFSET -0.943001 -26.722004 15.023500
						CHANNELS 3 Xrotation Yrotation Zrotation
						End Site
						{
							OFFSET 0.000000 30.670187 0.000000
						}
					}
				}
				JOINT newVegas:Right_PantLeg
				{
					OFFSET -0.661674 -9.044716 -1.108900
					CHANNELS 3 Xrotation Yrotation Zrotation
					End Site
					{
						OFFSET -1.415958 20.635269 0.000000
					}
				}
			}
		}
	}
	JOINT newVegas:Spine
	{
		OFFSET 0.000000 10.199997 -0.299500
		CHANNELS 3 Xrotation Yrotation Zrotation
		JOINT newVegas:Spine1
		{
			OFFSET 0.000000 11.900002 -1.516600
			CHANNELS 3 Xrotation Yrotation Zrotation
			JOINT newVegas:Spine2
			{
				OFFSET 0.000000 13.600006 -2.842500
				CHANNELS 3 Xrotation Yrotation Zrotation
				JOINT newVegas:Neck
				{
					OFFSET 0.000000 9.624100 -2.890100
					CHANNELS 3 Xrotation Yrotation Zrotation
					JOINT newVegas:Head
					{
						OFFSET 0.000000 14.068802 -1.351900
						CHANNELS 3 Xrotation Yrotation Zrotation
						JOINT newVegas:Hair_Back
						{
							OFFSET 0.000000 3.231903 -17.524799
							CHANNELS 3 Xrotation Yrotation Zrotation
							End Site
							{
								OFFSET 0.000000 19.849884 0.000000
							}
						}
						JOINT newVegas:Hair_Front
						{
							OFFSET 0.000000 31.260406 4.573800
							CHANNELS 3 Xrotation Yrotation Zrotation
							JOINT newVegas:Hair_Front1
							{
								OFFSET 0.000000 2.284103 11.993300
								CHANNELS 3 Xrotation Yrotation Zrotation
								JOINT newVegas:Hair_Front2
								{
									OFFSET 0.000000 2.284103 11.993300
									CHANNELS 3 Xrotation Yrotation Zrotation
									End Site
									{
										OFFSET 0.000000 12.208862 0.000000
									}
								}
							}
						}
						JOINT newVegas:Jowel
						{
							OFFSET 0.000000 -7.458206 6.864100
							CHANNELS 3 Xrotation Yrotation Zrotation
							End Site
							{
								OFFSET 0.000000 19.849884 0.000000
							}
						}
					}
				}
				JOINT newVegas:LeftShoulder
				{
					OFFSET 15.263000 10.923401 -0.547700
					CHANNELS 3 Xrotation Yrotation Zrotation
					JOINT newVegas:LeftArm
					{
						OFFSET 25.438599 -2.830597 -13.032500
						CHANNELS 3 Xrotation Yrotation Zrotation
						JOINT newVegas:LeftForeArm
						{
							OFFSET 29.960503 0.000000 0.000000
							CHANNELS 3 Xrotation Yrotation Zrotation
							JOINT newVegas:LeftHand
							{
								OFFSET 27.849251 0.000000 0.000000
								CHANNELS 3 Xrotation Yrotation Zrotation
								JOINT newVegas:LeftHandThumb1
								{
									OFFSET 4.487587 -3.305161 6.305391
									CHANNELS 3 Xrotation Yrotation Zrotation
									JOINT newVegas:LeftHandThumb2
									{
										OFFSET 5.480453 -3.164139 3.164143
										CHANNELS 3 Xrotation Yrotation Zrotation
										JOINT newVegas:LeftHandThumb3
										{
											OFFSET 5.159721 -2.978973 2.978967
											CHANNELS 3 Xrotation Yrotation Zrotation
											End Site
											{
												OFFSET 2.494507 5.926697 1.738678
											}
										}
									}
								}
								JOINT newVegas:LeftHandIndex1
								{
									OFFSET 18.578728 -0.527832 5.208049
									CHANNELS 3 Xrotation Yrotation Zrotation
									JOINT newVegas:LeftHandIndex2
									{
										OFFSET 3.192009 0.000000 0.000000
										CHANNELS 3 Xrotation Yrotation Zrotation
										JOINT newVegas:LeftHandIndex3
										{
											OFFSET 3.835129 0.000000 0.000000
											CHANNELS 3 Xrotation Yrotation Zrotation
											End Site
											{
												OFFSET -0.034599 3.816971 0.371180
											}
										}
									}
								}
								JOINT newVegas:LeftHandMiddle1
								{
									OFFSET 18.476105 0.000000 0.000000
									CHANNELS 3 Xrotation Yrotation Zrotation
									JOINT newVegas:LeftHandMiddle2
									{
										OFFSET 3.324875 0.000000 0.000000
										CHANNELS 3 Xrotation Yrotation Zrotation
										JOINT newVegas:LeftHandMiddle3
										{
											OFFSET 4.596550 0.000000 0.000000
											CHANNELS 3 Xrotation Yrotation Zrotation
											End Site
											{
												OFFSET 0.057701 4.578827 0.399218
											}
										}
									}
								}
								JOINT newVegas:LeftHandRing1
								{
									OFFSET 17.732719 0.121887 -4.201567
									CHANNELS 3 Xrotation Yrotation Zrotation
									JOINT newVegas:LeftHandRing2
									{
										OFFSET 2.733170 0.000000 0.000000
										CHANNELS 3 Xrotation Yrotation Zrotation
										JOINT newVegas:LeftHandRing3
										{
											OFFSET 3.178268 0.000000 0.000000
											CHANNELS 3 Xrotation Yrotation Zrotation
											End Site
											{
												OFFSET 0.119102 3.170624 0.185394
											}
										}
									}
								}
								JOINT newVegas:LeftHandPinky1
								{
									OFFSET 15.989624 -0.606689 -7.535461
									CHANNELS 3 Xrotation Yrotation Zrotation
									JOINT newVegas:LeftHandPinky2
									{
										OFFSET 2.538986 0.000000 0.000000
										CHANNELS 3 Xrotation Yrotation Zrotation
										JOINT newVegas:LeftHandPinky3
										{
											OFFSET 2.593102 0.000000 0.000000
											CHANNELS 3 Xrotation Yrotation Zrotation
											End Site
											{
												OFFSET -0.150902 2.584198 0.152708
											}
										}
									}
								}
							}
							JOINT newVegas:Left_Sleeve
							{
								OFFSET 0.267448 -0.649796 0.577675
								CHANNELS 3 Xrotation Yrotation Zrotation
								End Site
								{
									OFFSET 0.000000 15.991241 0.000000
								}
							}
							JOINT newVegas:Left_CapeC
							{
								OFFSET 15.715958 -8.608795 -6.935905
								CHANNELS 3 Xrotation Yrotation Zrotation
								JOINT newVegas:Left_CapeC1
								{
									OFFSET 0.000000 -8.688499 0.000000
									CHANNELS 3 Xrotation Yrotation Zrotation
									End Site
									{
										OFFSET 0.000000 8.688499 0.000000
									}
								}
							}
						}
						JOINT newVegas:Left_CapeB
						{
							OFFSET 26.118385 -8.608795 -7.079235
							CHANNELS 3 Xrotation Yrotation Zrotation
							JOINT newVegas:Left_CapeB1
							{
								OFFSET 0.000000 -8.688499 0.000000
								CHANNELS 3 Xrotation Yrotation Zrotation
								End Site
								{
									OFFSET 0.000000 8.688499 0.000000
								}
							}
						}
						JOINT newVegas:Left_CapeA
						{
							OFFSET 5.115639 -8.608795 -10.395809
							CHANNELS 3 Xrotation Yrotation Zrotation
							JOINT newVegas:Left_CapeA1
							{
								OFFSET 0.000000 -8.688499 0.000000
								CHANNELS 3 Xrotation Yrotation Zrotation
								End Site
								{
									OFFSET 0.000000 8.688499 0.000000
								}
							}
						}
					}
				}
				JOINT newVegas:RightShoulder
				{
					OFFSET -15.263000 10.923401 -0.547700
					CHANNELS 3 Xrotation Yrotation Zrotation
					JOINT newVegas:RightArm
					{
						OFFSET -25.438599 -2.830597 -13.032500
						CHANNELS 3 Xrotation Yrotation Zrotation
						JOINT newVegas:RightForeArm
						{
							OFFSET -29.960503 0.000000 0.000000
							CHANNELS 3 Xrotation Yrotation Zrotation
							JOINT newVegas:RightHand
							{
								OFFSET -27.849251 0.000000 0.000000
								CHANNELS 3 Xrotation Yrotation Zrotation
								JOINT newVegas:RightHandThumb1
								{
									OFFSET -4.487587 -3.305161 6.305391
									CHANNELS 3 Xrotation Yrotation Zrotation
									JOINT newVegas:RightHandThumb2
									{
										OFFSET -5.480453 -3.164139 3.164143
										CHANNELS 3 Xrotation Yrotation Zrotation
										JOINT newVegas:RightHandThumb3
										{
											OFFSET -5.159721 -2.978973 2.978967
											CHANNELS 3 Xrotation Yrotation Zrotation
											End Site
											{
												OFFSET -2.494507 5.926697 1.738678
											}
										}
									}
								}
								JOINT newVegas:RightHandIndex1
								{
									OFFSET -18.578728 -0.527832 5.208049
									CHANNELS 3 Xrotation Yrotation Zrotation
									JOINT newVegas:RightHandIndex2
									{
										OFFSET -3.192009 0.000000 0.000000
										CHANNELS 3 Xrotation Yrotation Zrotation
										JOINT newVegas:RightHandIndex3
										{
											OFFSET -3.835129 0.000000 0.000000
											CHANNELS 3 Xrotation Yrotation Zrotation
											End Site
											{
												OFFSET 0.034599 3.816971 0.371180
											}
										}
									}
								}
								JOINT newVegas:RightHandMiddle1
								{
									OFFSET -18.476105 0.000000 0.000000
									CHANNELS 3 Xrotation Yrotation Zrotation
									JOINT newVegas:RightHandMiddle2
									{
										OFFSET -3.324875 0.000000 0.000000
										CHANNELS 3 Xrotation Yrotation Zrotation
										JOINT newVegas:RightHandMiddle3
										{
											OFFSET -4.596550 0.000000 0.000000
											CHANNELS 3 Xrotation Yrotation Zrotation
											End Site
											{
												OFFSET -0.057701 4.578827 0.399218
											}
										}
									}
								}
								JOINT newVegas:RightHandRing1
								{
									OFFSET -17.732719 0.121887 -4.201567
									CHANNELS 3 Xrotation Yrotation Zrotation
									JOINT newVegas:RightHandRing2
									{
										OFFSET -2.733170 0.000000 0.000000
										CHANNELS 3 Xrotation Yrotation Zrotation
										JOINT newVegas:RightHandRing3
										{
											OFFSET -3.178268 0.000000 0.000000
											CHANNELS 3 Xrotation Yrotation Zrotation
											End Site
											{
												OFFSET -0.119102 3.170624 0.185394
											}
										}
									}
								}
								JOINT newVegas:RightHandPinky1
								{
									OFFSET -15.989624 -0.606689 -7.535461
									CHANNELS 3 Xrotation Yrotation Zrotation
									JOINT newVegas:RightHandPinky2
									{
										OFFSET -2.538986 0.000000 0.000000
										CHANNELS 3 Xrotation Yrotation Zrotation
										JOINT newVegas:RightHandPinky3
										{
											OFFSET -2.593102 0.000000 0.000000
											CHANNELS 3 Xrotation Yrotation Zrotation
											End Site
											{
												OFFSET 0.150902 2.584198 0.152708
											}
										}
									}
								}
							}
							JOINT newVegas:Right_CapeC
							{
								OFFSET -15.715958 -8.608795 -6.935905
								CHANNELS 3 Xrotation Yrotation Zrotation
								JOINT newVegas:Right_CapeC1
								{
									OFFSET 0.000000 -8.688499 0.000000
									CHANNELS 3 Xrotation Yrotation Zrotation
									End Site
									{
										OFFSET 0.000000 8.688499 0.000000
									}
								}
							}
							JOINT newVegas:Right_Sleeve
							{
								OFFSET -0.267448 -0.649994 0.577675
								CHANNELS 3 Xrotation Yrotation Zrotation
								End Site
								{
									OFFSET 0.000000 15.991302 0.000000
								}
							}
						}
						JOINT newVegas:Right_CapeA
						{
							OFFSET -5.115540 -8.608795 -10.395824
							CHANNELS 3 Xrotation Yrotation Zrotation
							JOINT newVegas:Right_CapeA1
							{
								OFFSET 0.000000 -8.688499 0.000000
								CHANNELS 3 Xrotation Yrotation Zrotation
								End Site
								{
									OFFSET 0.000000 8.688499 0.000000
								}
							}
						}
						JOINT newVegas:Right_CapeB
						{
							OFFSET -26.118187 -8.608795 -7.079266
							CHANNELS 3 Xrotation Yrotation Zrotation
							JOINT newVegas:Right_CapeB1
							{
								OFFSET 0.000000 -8.688499 0.000000
								CHANNELS 3 Xrotation Yrotation Zrotation
								End Site
								{
									OFFSET 0.000000 8.688499 0.000000
								}
							}
						}
					}
				}
				JOINT newVegas:Left_Collar
				{
					OFFSET 18.625099 8.655502 8.828100
					CHANNELS 3 Xrotation Yrotation Zrotation
					JOINT newVegas:Left_Collar1
					{
						OFFSET 14.783401 10.540405 -1.259500
						CHANNELS 3 Xrotation Yrotation Zrotation
						End Site
						{
							OFFSET 0.000000 18.199875 0.000000
						}
					}
				}
				JOINT newVegas:Collar_Back
				{
					OFFSET 0.000000 15.630707 -20.132601
					CHANNELS 3 Xrotation Yrotation Zrotation
					End Site
					{
						OFFSET 0.000000 22.523010 0.000000
					}
				}
				JOINT newVegas:Left_Peck
				{
					OFFSET 17.239599 -5.132599 25.482599
					CHANNELS 3 Xrotation Yrotation Zrotation
					End Site
					{
						OFFSET 0.000000 22.523010 0.000000
					}
				}
				JOINT newVegas:Right_Peck
				{
					OFFSET -17.239599 -5.132202 25.482599
					CHANNELS 3 Xrotation Yrotation Zrotation
					End Site
					{
						OFFSET 0.000000 22.523010 0.000000
					}
				}
				JOINT newVegas:Right_Collar
				{
					OFFSET -18.625099 8.655792 8.828100
					CHANNELS 3 Xrotation Yrotation Zrotation
					JOINT newVegas:Right_Collar1
					{
						OFFSET -14.783401 10.539993 -1.259500
						CHANNELS 3 Xrotation Yrotation Zrotation
						End Site
						{
							OFFSET 0.000000 18.199631 0.000000
						}
					}
				}
			}
		}
		JOINT newVegas:Belly
		{
			OFFSET 0.000000 -6.540398 9.014299
			CHANNELS 3 Xrotation Yrotation Zrotation
			End Site
			{
				OFFSET 0.000000 11.566666 0.000000
			}
		}
	}
	JOINT newVegas:ElvisFacialAnim_Joint
	{
		OFFSET 1.000000 -95.330101 -8.825800
		CHANNELS 3 Xrotation Yrotation Zrotation
		End Site
		{
			OFFSET 0.000000 35.315800 0.000000
		}
	}
}
MOTION
Frames: 4
Frame Time: 0.016667
6.133416 91.378197 8.638293 -0.180368 19.019881 6.496863 0.000000 -0.000001 0.000000 -24.872387 -5.729245 -5.034408 25.465686 0.490192 -5.162321 -0.931912 10.469854 0.580060 0.000000 -0.000000 -0.000000 -0.000000 0.000000 0.000000 11.220111 -12.939154 -12.118986 21.746796 -20.725509 1.164274 -10.274473 -32.854689 25.637836 0.000000 0.000002 -0.000000 -0.000006 -0.000001 0.000001 0.109449 6.921552 10.506845 8.389055 6.747490 0.422352 0.206958 6.614083 0.368023 -2.656320 -3.856008 0.704628 -2.656321 -3.855999 0.704642 -0.000001 0.000002 -0.000001 -2.656313 -3.855990 0.704627 -2.656262 -3.856049 0.704652 0.000000 -0.000001 0.000000 -0.000001 0.000002 0.000001 -0.154065 9.312178 20.132345 -63.723370 6.157085 -31.462460 318.740804 -20.602962 373.295848 -53.062766 28.769713 30.735561 17.551619 -5.699202 -12.932288 10.850421 26.127717 8.644847 -0.000002 0.000000 -0.000004 13.980915 1.201555 -55.004381 0.370816 1.161705 -65.441887 0.000002 0.000001 -0.000001 7.504716 1.174478 -63.778517 1.807823 1.475659 -64.567937 0.000001 0.000003 -0.000000 8.574316 2.179115 -75.148992 -0.207666 1.009281 -57.855056 -0.000000 -0.000006 0.000000 10.030094 13.637072 -84.750251 0.877085 0.062288 -64.595531 0.000002 -0.000003 -0.000000 0.000001 -0.000002 0.000000 0.000001 -0.000002 0.000000 0.000000 -0.000002 0.000000 0.000004 -0.000002 -0.000002 0.000004 -0.000003 -0.000001 0.000004 -0.000002 -0.000002 0.000003 -0.000002 -0.000002 5.429959 9.442472 5.676211 15.856569 -66.495238 55.369963 -0.248997 19.228904 37.981524 72.680501 -1.056090 4.143542 15.788549 -2.734546 -17.205812 -2.832814 -29.366583 12.741428 -0.000000 -0.000001 0.000001 3.460512 -3.220955 22.317858 -2.139075 -2.479443 34.133846 0.000001 0.000000 0.000000 -1.981737 -5.708780 28.547069 0.291795 -5.115381 57.918502 0.000002 0.000001 -0.000003 -3.258546 -8.570284 35.335710 4.048589 -4.073924 65.874490 0.000001 0.000002 0.000005 -5.950097 -17.426359 53.146815 10.727125 -2.565939 58.259430 0.000000 -0.000004 0.000000 0.000000 -0.000001 0.000000 0.000000 -0.000001 0.000000 0.000000 -0.000001 -0.000000 -0.000001 0.000001 0.000002 -0.000001 0.000001 0.000004 -0.000001 0.000001 0.000002 -0.000001 0.000001 0.000005 0.000000 0.000000 -0.000000 0.000000 0.000000 -0.000000 0.000000 0.000000 -0.000000 0.000000 0.000000 -0.000000 0.000000 0.000000 -0.000000 0.000000 0.000000 -0.000000 0.000000 0.000000 -0.000000 0.000000 -0.000001 -0.000000 0.000000 -0.000001 0.000000 
6.331455 90.978119 8.609223 0.433304 23.763729 5.811460 -0.000000 0.000002 0.000000 -28.173350 -8.365285 -5.936360 26.875560 -0.478954 -5.465182 -0.117370 9.680638 0.635368 -0.000000 -0.000001 -0.000000 -0.000000 -0.000001 0.000001 13.784678 -17.414607 -10.063658 18.012370 -20.260549 0.509529 -9.868746 -31.218841 25.765883 0.000000 0.000002 -0.000000 0.000002 -0.000002 -0.000001 -1.108415 7.283802 10.484252 7.340190 7.401400 -0.347055 0.687532 7.224081 -0.473162 -3.050342 -4.392090 1.151301 -3.050344 -4.392080 1.151301 -0.000000 0.000001 0.000001 -3.050340 -4.392109 1.151306 -3.050326 -4.392052 1.151293 0.000000 -0.000002 -0.000002 -0.000000 0.000001 0.000001 -0.958328 11.589820 16.054737 -66.492090 6.731933 -32.420917 309.931472 -20.341210 375.357171 -52.110146 22.279614 29.101838 17.551614 -5.699201 -12.932294 10.850424 26.127712 8.644847 0.000003 -0.000001 -0.000004 13.980915 1.201559 -55.004377 0.370820 1.161702 -65.441887 -0.000000 -0.000003 0.000001 7.504713 1.174481 -63.778510 1.807825 1.475659 -64.567930 -0.000001 -0.000001 -0.000001 8.574316 2.179110 -75.148992 -0.207668 1.009276 -57.855049 0.000002 0.000001 -0.000001 10.030089 13.637068 -84.750251 0.877089 0.062283 -64.595531 -0.000001 0.000002 0.000000 0.000001 -0.000004 0.000001 0.000001 -0.000004 0.000001 0.000000 -0.000005 0.000001 0.000000 -0.000003 0.000001 0.000001 -0.000002 -0.000002 0.000000 -0.000003 0.000001 -0.000001 -0.000002 0.000001 5.228956 9.723384 6.084445 10.668890 -68.209411 51.667502 -0.500527 18.866874 38.212361 79.163586 0.444220 3.903862 15.788532 -2.734504 -17.205810 -2.817499 -29.403698 12.657777 0.000000 0.000001 -0.000000 3.434953 -3.235366 22.125537 -2.139757 -2.479383 33.905073 -0.000000 0.000000 0.000000 -1.981937 -5.708337 28.331287 0.291621 -5.115292 57.471630 0.000000 0.000001 -0.000000 -3.259467 -8.570088 34.996516 4.048365 -4.073820 65.399300 -0.000001 0.000001 -0.000000 -6.000665 -17.333613 52.703884 10.727016 -2.565876 57.922887 0.000002 -0.000000 0.000002 0.000000 0.000000 -0.000000 -0.000000 -0.000000 0.000000 0.000000 -0.000000 -0.000000 -0.000000 -0.000002 -0.000000 -0.000000 -0.000001 -0.000002 -0.000000 -0.000002 -0.000000 -0.000000 -0.000001 -0.000000 0.000001 0.000002 0.000000 0.000001 0.000002 0.000000 0.000001 0.000002 0.000000 0.000001 0.000002 0.000000 0.000001 0.000002 0.000000 0.000001 0.000002 0.000000 0.000001 0.000002 0.000000 -0.000000 -0.000000 -0.000000 -0.000000 0.000002 0.000000 
6.480403 90.591545 8.550835 1.118823 27.878010 5.146714 0.000000 -0.000002 -0.000000 -31.148463 -10.837823 -7.035669 27.891988 -0.980869 -5.666447 0.742522 8.946079 0.513594 -0.000000 -0.000001 0.000000 -0.000000 -0.000000 0.000000 16.173546 -22.045648 -8.154592 14.446069 -18.891453 -0.000852 -9.656235 -29.375380 25.569180 0.000000 -0.000002 0.000001 0.000003 0.000001 0.000000 -2.138768 7.664454 10.142039 6.409503 8.037282 -1.007984 1.207254 7.779497 -1.226571 -3.430380 -4.817183 1.546776 -3.430378 -4.817177 1.546784 -0.000000 0.000000 -0.000000 -3.430302 -4.817164 1.546786 -3.430406 -4.817177 1.546776 -0.000000 -0.000001 -0.000000 -0.000000 0.000000 0.000001 -1.386120 13.153983 11.553610 -68.111391 6.494230 -33.152413 305.017206 -21.210147 374.224125 -51.626234 18.333257 27.120504 17.551619 -5.699201 -12.932291 10.850426 26.127710 8.644848 0.000001 -0.000001 -0.000001 13.980917 1.201558 -55.004381 0.370819 1.161705 -65.441887 -0.000002 0.000003 -0.000003 7.504715 1.174479 -63.778517 1.807818 1.475661 -64.567937 0.000003 -0.000003 0.000001 8.574320 2.179120 -75.148992 -0.207669 1.009276 -57.855056 -0.000003 -0.000004 0.000004 10.030094 13.637073 -84.750251 0.877088 0.062290 -64.595524 0.000001 -0.000003 -0.000002 0.000002 -0.000001 0.000001 0.000002 -0.000001 0.000001 0.000002 -0.000002 0.000001 0.000001 -0.000001 0.000001 0.000002 -0.000001 -0.000003 0.000001 -0.000001 0.000001 0.000001 -0.000000 0.000000 5.052230 10.207457 6.320872 6.135841 -67.294528 48.041232 0.327627 18.396971 37.774559 83.008580 -0.368285 3.065879 15.788544 -2.734536 -17.205810 -2.808283 -29.432648 12.569093 0.000001 -0.000002 0.000003 3.396517 -3.255164 21.917858 -2.140526 -2.479424 33.642230 0.000001 0.000000 -0.000004 -1.982208 -5.708100 28.088026 0.291425 -5.115129 56.979139 -0.000001 -0.000000 -0.000001 -3.260366 -8.569909 34.620105 4.048123 -4.073714 64.869121 -0.000000 -0.000001 0.000000 -6.047897 -17.233611 52.206452 10.726880 -2.565837 57.544822 0.000001 -0.000000 0.000001 -0.000001 -0.000001 0.000000 -0.000001 -0.000001 0.000000 -0.000001 -0.000001 0.000000 0.000001 0.000001 -0.000001 0.000000 0.000002 -0.000003 0.000001 0.000001 -0.000001 0.000001 0.000002 -0.000001 -0.000002 0.000003 -0.000000 -0.000002 0.000003 -0.000000 -0.000002 0.000003 -0.000000 -0.000002 0.000003 -0.000000 -0.000002 0.000003 -0.000000 -0.000002 0.000003 -0.000000 -0.000002 0.000003 -0.000000 -0.000000 -0.000002 -0.000000 0.000000 -0.000002 -0.000000 
6.562421 90.274658 8.497541 1.776550 30.797562 4.634099 -0.000000 -0.000000 0.000001 -33.507948 -13.154232 -8.226909 28.435304 -1.662461 -5.831700 1.421373 9.434869 0.256699 0.000000 0.000000 0.000000 -0.000000 -0.000001 0.000000 17.991820 -25.236492 -6.542765 11.829304 -17.996987 -0.301564 -9.581612 -28.120703 25.353351 -0.000001 -0.000002 0.000000 0.000001 -0.000000 -0.000001 -3.036286 8.051310 9.583233 5.554688 8.658311 -1.589358 1.738241 8.299229 -1.912930 -3.792772 -5.169267 1.911216 -3.792768 -5.169290 1.911215 -0.000000 0.000001 -0.000000 -3.792766 -5.169233 1.911212 -3.792734 -5.169363 1.911232 -0.000000 0.000000 -0.000003 -0.000000 0.000001 -0.000001 -1.577758 14.389631 6.973792 -69.478009 6.137846 -33.977971 302.849468 -21.535481 372.111629 -50.465484 13.830761 25.019678 17.551619 -5.699201 -12.932290 10.850421 26.127717 8.644849 -0.000001 0.000000 -0.000003 13.980915 1.201556 -55.004381 0.370819 1.161698 -65.441880 -0.000003 0.000000 0.000000 7.504714 1.174476 -63.778510 1.807819 1.475654 -64.567937 0.000000 0.000000 -0.000002 8.574317 2.179111 -75.148992 -0.207658 1.009276 -57.855063 -0.000001 -0.000002 0.000002 10.030094 13.637069 -84.750244 0.877086 0.062281 -64.595524 -0.000001 -0.000002 -0.000002 0.000001 0.000001 -0.000000 0.000001 0.000001 -0.000000 0.000000 0.000000 -0.000000 0.000000 -0.000001 0.000000 0.000001 -0.000000 -0.000003 0.000000 -0.000001 0.000000 -0.000000 -0.000000 0.000000 4.894000 10.841110 6.313585 4.878248 -64.300890 47.139094 1.435491 17.723764 37.243526 83.415816 -3.115097 2.073303 15.788525 -2.734539 -17.205810 -2.805496 -29.452756 12.475387 0.000000 -0.000003 -0.000001 3.344304 -3.280465 21.694668 -2.141391 -2.479314 33.343901 0.000000 -0.000000 -0.000001 -1.982564 -5.707893 27.816410 0.291200 -5.114988 56.440001 0.000001 -0.000001 -0.000000 -3.261266 -8.569692 34.205560 4.047814 -4.073561 64.282435 0.000001 -0.000001 -0.000001 -6.090995 -17.126365 51.652920 10.726715 -2.565667 57.123836 0.000000 0.000002 -0.000001 -0.000001 0.000000 -0.000000 -0.000001 0.000001 -0.000000 -0.000001 -0.000000 -0.000000 -0.000001 0.000000 -0.000003 -0.000002 0.000000 -0.000004 -0.000001 0.000000 -0.000003 -0.000002 -0.000000 -0.000003 -0.000000 0.000002 0.000002 -0.000000 0.000002 0.000002 -0.000000 0.000002 0.000002 -0.000000 0.000002 0.000002 -0.000000 0.000002 0.000002 -0.000000 0.000002 0.000002 -0.000000 0.000002 0.000002 -0.000001 0.000004 -0.000000 -0.000000 -0.000000 0.000001 
